<svg class="svg-icon" style="width: 1em; height: 1em;vertical-align: middle;fill: currentColor;overflow: hidden;" viewBox="0 0 1024 1024" version="1.1" xmlns="http://www.w3.org/2000/svg"><path d="M832 352V192a96 96 0 0 0-96-96H192a96 96 0 0 0-96 96v320a96 96 0 0 0 32 72V640H96v96h32v32h43.2A320 320 0 0 0 224 836.16V896h32v32h96v-14.72A320 320 0 0 0 704 800h26.88L928 964.48V448a96 96 0 0 0-96-96z" fill="#FFFFFF" /><path d="M448 608m-288 0a288 288 0 1 0 576 0 288 288 0 1 0-576 0Z" fill="#E9EAEB" /><path d="M128 128m64 0l544 0q64 0 64 64l0 320q0 64-64 64l-544 0q-64 0-64-64l0-320q0-64 64-64Z" fill="#A3D4FF" /><path d="M736 128H192a64 64 0 0 0-64 64v320a64 64 0 0 0 64 64h64v-32H192a32 32 0 0 1-32-32V192a32 32 0 0 1 32-32h544a32 32 0 0 1 32 32v128h32V192a64 64 0 0 0-64-64z" fill="#2A5082" /><path d="M190.08 491.648l118.784-118.816 22.656 22.656-118.816 118.784z" fill="#2A5082" /><path d="M224 672H192v-32H160v32H128v32h32v32h32v-32h32v-32zM352 832h-32v-32H288v32H256v32h32v32h32v-32h32v-32z" fill="#BCC0C4" /><path d="M896 448a64 64 0 0 0-64-64H384a64 64 0 0 0-64 64v256a64 64 0 0 0 64 64h358.4l153.6 128v-192z" fill="#FFFFFF" /><path d="M832 384h-265.6l180.8-180.8-22.4-22.4L521.6 384h-115.2L203.2 180.8l-22.4 22.4 184 184A64 64 0 0 0 320 448v256a64 64 0 0 0 64 64h358.4l153.6 128V448a64 64 0 0 0-64-64z m32 443.52l-101.12-84.16-8.96-7.36H384a32 32 0 0 1-32-32v-256a32 32 0 0 1 32-32h448a32 32 0 0 1 32 32z" fill="#2A5082" /><path d="M416 480h384v32H416zM416 576h224v32h-224zM704 576h96v32h-96z" fill="#2A5082" /></svg>